<?xml version="1.0" encoding="UTF-8"?>
<!DOCTYPE svg PUBLIC "-//W3C//DTD SVG 1.1//EN" "http://www.w3.org/Graphics/SVG/1.1/DTD/svg11.dtd">
<svg version="1.1" xmlns="http://www.w3.org/2000/svg" xmlns:xlink="http://www.w3.org/1999/xlink" x="0px" y="0px" width="446.4" height="288" viewBox="0, 0, 446.4, 288">
  <g id="Layer 1">
    <path d="M327.344,146.235 L354.512,146.235 L354.512,173.416 L327.344,173.416 z" fill-opacity="0" stroke="#000000" stroke-width="1"/>
    <path d="M354.512,146.235 L381.68,146.235 L381.68,173.416 L354.512,173.416 z" fill-opacity="0" stroke="#000000" stroke-width="1"/>
    <path d="M381.68,146.235 L408.848,146.235 L408.848,173.416 L381.68,173.416 z" fill-opacity="0" stroke="#000000" stroke-width="1"/>
    <path d="M300.176,173.416 L327.344,173.416 L327.344,200.597 L300.176,200.597 z" fill-opacity="0" stroke="#000000" stroke-width="1"/>
    <path d="M327.344,173.416 L354.512,173.416 L354.512,200.597 L327.344,200.597 z" fill-opacity="0" stroke="#000000" stroke-width="1"/>
    <path d="M354.512,173.416 L381.68,173.416 L381.68,200.597 L354.512,200.597 z" fill-opacity="0" stroke="#000000" stroke-width="1"/>
    <path d="M381.68,173.416 L408.848,173.416 L408.848,200.597 L381.68,200.597 z" fill-opacity="0" stroke="#000000" stroke-width="1"/>
    <path d="M300.176,200.597 L327.344,200.597 L327.344,227.779 L300.176,227.779 z" fill-opacity="0" stroke="#000000" stroke-width="1"/>
    <path d="M327.344,200.597 L354.512,200.597 L354.512,227.779 L327.344,227.779 z" fill-opacity="0" stroke="#000000" stroke-width="1"/>
    <path d="M354.512,200.597 L381.68,200.597 L381.68,227.779 L354.512,227.779 z" fill-opacity="0" stroke="#000000" stroke-width="1"/>
    <path d="M381.68,200.597 L408.848,200.597 L408.848,227.779 L381.68,227.779 z" fill-opacity="0" stroke="#000000" stroke-width="1"/>
    <path d="M300.176,227.779 L327.344,227.779 L327.344,254.96 L300.176,254.96 z" fill-opacity="0" stroke="#000000" stroke-width="1"/>
    <path d="M327.344,227.779 L354.512,227.779 L354.512,254.96 L327.344,254.96 z" fill-opacity="0" stroke="#000000" stroke-width="1"/>
    <path d="M354.512,227.779 L381.68,227.779 L381.68,254.96 L354.512,254.96 z" fill-opacity="0" stroke="#000000" stroke-width="1"/>
    <path d="M381.68,227.779 L408.848,227.779 L408.848,254.96 L381.68,254.96 z" fill-opacity="0" stroke="#000000" stroke-width="1"/>
    <g>
      <path d="M315.933,159.826 C315.933,161.026 314.96,162 313.76,162 C312.56,162 311.586,161.026 311.586,159.826 C311.586,158.625 312.56,157.651 313.76,157.651 C314.96,157.651 315.933,158.625 315.933,159.826 z" fill="#000000"/>
      <path d="M315.933,159.826 C315.933,161.026 314.96,162 313.76,162 C312.56,162 311.586,161.026 311.586,159.826 C311.586,158.625 312.56,157.651 313.76,157.651 C314.96,157.651 315.933,158.625 315.933,159.826 z" fill-opacity="0" stroke="#000000" stroke-width="1"/>
    </g>
    <g>
      <path d="M343.101,159.826 C343.101,161.026 342.128,162 340.928,162 C339.728,162 338.754,161.026 338.754,159.826 C338.754,158.625 339.728,157.651 340.928,157.651 C342.128,157.651 343.101,158.625 343.101,159.826 z" fill="#000000"/>
      <path d="M343.101,159.826 C343.101,161.026 342.128,162 340.928,162 C339.728,162 338.754,161.026 338.754,159.826 C338.754,158.625 339.728,157.651 340.928,157.651 C342.128,157.651 343.101,158.625 343.101,159.826 z" fill-opacity="0" stroke="#000000" stroke-width="1"/>
    </g>
    <g>
      <path d="M370.269,159.826 C370.269,161.026 369.296,162 368.096,162 C366.896,162 365.922,161.026 365.922,159.826 C365.922,158.625 366.896,157.651 368.096,157.651 C369.296,157.651 370.269,158.625 370.269,159.826 z" fill="#000000"/>
      <path d="M370.269,159.826 C370.269,161.026 369.296,162 368.096,162 C366.896,162 365.922,161.026 365.922,159.826 C365.922,158.625 366.896,157.651 368.096,157.651 C369.296,157.651 370.269,158.625 370.269,159.826 z" fill-opacity="0" stroke="#000000" stroke-width="1"/>
    </g>
    <g>
      <path d="M397.437,159.826 C397.437,161.026 396.464,162 395.264,162 C394.063,162 393.09,161.026 393.09,159.826 C393.09,158.625 394.063,157.651 395.264,157.651 C396.464,157.651 397.437,158.625 397.437,159.826 z" fill="#000000"/>
      <path d="M397.437,159.826 C397.437,161.026 396.464,162 395.264,162 C394.063,162 393.09,161.026 393.09,159.826 C393.09,158.625 394.063,157.651 395.264,157.651 C396.464,157.651 397.437,158.625 397.437,159.826 z" fill-opacity="0" stroke="#000000" stroke-width="1"/>
    </g>
    <g>
      <path d="M315.933,187.007 C315.933,188.208 314.96,189.181 313.76,189.181 C312.56,189.181 311.586,188.208 311.586,187.007 C311.586,185.806 312.56,184.832 313.76,184.832 C314.96,184.832 315.933,185.806 315.933,187.007 z" fill="#000000"/>
      <path d="M315.933,187.007 C315.933,188.208 314.96,189.181 313.76,189.181 C312.56,189.181 311.586,188.208 311.586,187.007 C311.586,185.806 312.56,184.832 313.76,184.832 C314.96,184.832 315.933,185.806 315.933,187.007 z" fill-opacity="0" stroke="#000000" stroke-width="1"/>
    </g>
    <g>
      <path d="M343.101,187.007 C343.101,188.208 342.128,189.181 340.928,189.181 C339.728,189.181 338.754,188.208 338.754,187.007 C338.754,185.806 339.728,184.832 340.928,184.832 C342.128,184.832 343.101,185.806 343.101,187.007 z" fill="#000000"/>
      <path d="M343.101,187.007 C343.101,188.208 342.128,189.181 340.928,189.181 C339.728,189.181 338.754,188.208 338.754,187.007 C338.754,185.806 339.728,184.832 340.928,184.832 C342.128,184.832 343.101,185.806 343.101,187.007 z" fill-opacity="0" stroke="#000000" stroke-width="1"/>
    </g>
    <g>
      <path d="M370.269,187.007 C370.269,188.208 369.296,189.181 368.096,189.181 C366.896,189.181 365.922,188.208 365.922,187.007 C365.922,185.806 366.896,184.832 368.096,184.832 C369.296,184.832 370.269,185.806 370.269,187.007 z" fill="#000000"/>
      <path d="M370.269,187.007 C370.269,188.208 369.296,189.181 368.096,189.181 C366.896,189.181 365.922,188.208 365.922,187.007 C365.922,185.806 366.896,184.832 368.096,184.832 C369.296,184.832 370.269,185.806 370.269,187.007 z" fill-opacity="0" stroke="#000000" stroke-width="1"/>
    </g>
    <g>
      <path d="M397.437,187.007 C397.437,188.208 396.464,189.181 395.264,189.181 C394.063,189.181 393.09,188.208 393.09,187.007 C393.09,185.806 394.063,184.832 395.264,184.832 C396.464,184.832 397.437,185.806 397.437,187.007 z" fill="#000000"/>
      <path d="M397.437,187.007 C397.437,188.208 396.464,189.181 395.264,189.181 C394.063,189.181 393.09,188.208 393.09,187.007 C393.09,185.806 394.063,184.832 395.264,184.832 C396.464,184.832 397.437,185.806 397.437,187.007 z" fill-opacity="0" stroke="#000000" stroke-width="1"/>
    </g>
    <g>
      <path d="M315.933,214.188 C315.933,215.389 314.96,216.362 313.76,216.362 C312.56,216.362 311.586,215.389 311.586,214.188 C311.586,212.987 312.56,212.013 313.76,212.013 C314.96,212.013 315.933,212.987 315.933,214.188 z" fill="#000000"/>
      <path d="M315.933,214.188 C315.933,215.389 314.96,216.362 313.76,216.362 C312.56,216.362 311.586,215.389 311.586,214.188 C311.586,212.987 312.56,212.013 313.76,212.013 C314.96,212.013 315.933,212.987 315.933,214.188 z" fill-opacity="0" stroke="#000000" stroke-width="1"/>
    </g>
    <g>
      <path d="M343.101,214.188 C343.101,215.389 342.128,216.362 340.928,216.362 C339.728,216.362 338.754,215.389 338.754,214.188 C338.754,212.987 339.728,212.013 340.928,212.013 C342.128,212.013 343.101,212.987 343.101,214.188 z" fill="#000000"/>
      <path d="M343.101,214.188 C343.101,215.389 342.128,216.362 340.928,216.362 C339.728,216.362 338.754,215.389 338.754,214.188 C338.754,212.987 339.728,212.013 340.928,212.013 C342.128,212.013 343.101,212.987 343.101,214.188 z" fill-opacity="0" stroke="#000000" stroke-width="1"/>
    </g>
    <g>
      <path d="M370.269,214.188 C370.269,215.389 369.296,216.362 368.096,216.362 C366.896,216.362 365.922,215.389 365.922,214.188 C365.922,212.987 366.896,212.013 368.096,212.013 C369.296,212.013 370.269,212.987 370.269,214.188 z" fill="#000000"/>
      <path d="M370.269,214.188 C370.269,215.389 369.296,216.362 368.096,216.362 C366.896,216.362 365.922,215.389 365.922,214.188 C365.922,212.987 366.896,212.013 368.096,212.013 C369.296,212.013 370.269,212.987 370.269,214.188 z" fill-opacity="0" stroke="#000000" stroke-width="1"/>
    </g>
    <g>
      <path d="M397.437,214.188 C397.437,215.389 396.464,216.362 395.264,216.362 C394.063,216.362 393.09,215.389 393.09,214.188 C393.09,212.987 394.063,212.013 395.264,212.013 C396.464,212.013 397.437,212.987 397.437,214.188 z" fill="#000000"/>
      <path d="M397.437,214.188 C397.437,215.389 396.464,216.362 395.264,216.362 C394.063,216.362 393.09,215.389 393.09,214.188 C393.09,212.987 394.063,212.013 395.264,212.013 C396.464,212.013 397.437,212.987 397.437,214.188 z" fill-opacity="0" stroke="#000000" stroke-width="1"/>
    </g>
    <g>
      <path d="M315.933,241.369 C315.933,242.57 314.96,243.544 313.76,243.544 C312.56,243.544 311.586,242.57 311.586,241.369 C311.586,240.168 312.56,239.195 313.76,239.195 C314.96,239.195 315.933,240.168 315.933,241.369 z" fill="#000000"/>
      <path d="M315.933,241.369 C315.933,242.57 314.96,243.544 313.76,243.544 C312.56,243.544 311.586,242.57 311.586,241.369 C311.586,240.168 312.56,239.195 313.76,239.195 C314.96,239.195 315.933,240.168 315.933,241.369 z" fill-opacity="0" stroke="#000000" stroke-width="1"/>
    </g>
    <g>
      <path d="M343.101,241.369 C343.101,242.57 342.128,243.544 340.928,243.544 C339.728,243.544 338.754,242.57 338.754,241.369 C338.754,240.168 339.728,239.195 340.928,239.195 C342.128,239.195 343.101,240.168 343.101,241.369 z" fill="#000000"/>
      <path d="M343.101,241.369 C343.101,242.57 342.128,243.544 340.928,243.544 C339.728,243.544 338.754,242.57 338.754,241.369 C338.754,240.168 339.728,239.195 340.928,239.195 C342.128,239.195 343.101,240.168 343.101,241.369 z" fill-opacity="0" stroke="#000000" stroke-width="1"/>
    </g>
    <g>
      <path d="M370.269,241.369 C370.269,242.57 369.296,243.544 368.096,243.544 C366.896,243.544 365.922,242.57 365.922,241.369 C365.922,240.168 366.896,239.195 368.096,239.195 C369.296,239.195 370.269,240.168 370.269,241.369 z" fill="#000000"/>
      <path d="M370.269,241.369 C370.269,242.57 369.296,243.544 368.096,243.544 C366.896,243.544 365.922,242.57 365.922,241.369 C365.922,240.168 366.896,239.195 368.096,239.195 C369.296,239.195 370.269,240.168 370.269,241.369 z" fill-opacity="0" stroke="#000000" stroke-width="1"/>
    </g>
    <g>
      <path d="M397.437,241.369 C397.437,242.57 396.464,243.544 395.264,243.544 C394.063,243.544 393.09,242.57 393.09,241.369 C393.09,240.168 394.063,239.195 395.264,239.195 C396.464,239.195 397.437,240.168 397.437,241.369 z" fill="#000000"/>
      <path d="M397.437,241.369 C397.437,242.57 396.464,243.544 395.264,243.544 C394.063,243.544 393.09,242.57 393.09,241.369 C393.09,240.168 394.063,239.195 395.264,239.195 C396.464,239.195 397.437,240.168 397.437,241.369 z" fill-opacity="0" stroke="#000000" stroke-width="1"/>
    </g>
    <path d="M10.384,23.919 L37.552,23.919 L37.552,51.101 L10.384,51.101 z" fill-opacity="0" stroke="#000000" stroke-width="1"/>
    <path d="M37.552,23.919 L64.72,23.919 L64.72,51.101 L37.552,51.101 z" fill-opacity="0" stroke="#000000" stroke-width="1"/>
    <path d="M64.72,23.919 L91.888,23.919 L91.888,51.101 L64.72,51.101 z" fill-opacity="0" stroke="#000000" stroke-width="1"/>
    <path d="M91.888,23.919 L119.056,23.919 L119.056,51.101 L91.888,51.101 z" fill-opacity="0" stroke="#000000" stroke-width="1"/>
    <path d="M10.384,51.101 L37.552,51.101 L37.552,78.282 L10.384,78.282 z" fill-opacity="0" stroke="#000000" stroke-width="1"/>
    <path d="M37.552,51.101 L64.72,51.101 L64.72,78.282 L37.552,78.282 z" fill-opacity="0" stroke="#000000" stroke-width="1"/>
    <path d="M64.72,51.101 L91.888,51.101 L91.888,78.282 L64.72,78.282 z" fill-opacity="0" stroke="#000000" stroke-width="1"/>
    <path d="M91.888,51.101 L119.056,51.101 L119.056,78.282 L91.888,78.282 z" fill-opacity="0" stroke="#000000" stroke-width="1"/>
    <path d="M10.384,105.463 L37.552,105.463 L37.552,132.644 L10.384,132.644 z" fill-opacity="0" stroke="#000000" stroke-width="1"/>
    <path d="M37.552,105.463 L64.72,105.463 L64.72,132.644 L37.552,132.644 z" fill-opacity="0" stroke="#000000" stroke-width="1"/>
    <path d="M64.72,105.463 L91.888,105.463 L91.888,132.644 L64.72,132.644 z" fill-opacity="0" stroke="#000000" stroke-width="1"/>
    <path d="M91.888,105.463 L119.056,105.463 L119.056,132.644 L91.888,132.644 z" fill-opacity="0" stroke="#000000" stroke-width="1"/>
    <path d="M10.384,78.282 L37.552,78.282 L37.552,105.463 L10.384,105.463 z" fill-opacity="0" stroke="#000000" stroke-width="1"/>
    <path d="M37.552,78.282 L64.72,78.282 L64.72,105.463 L37.552,105.463 z" fill-opacity="0" stroke="#000000" stroke-width="1"/>
    <path d="M64.72,78.282 L91.888,78.282 L91.888,105.463 L64.72,105.463 z" fill-opacity="0" stroke="#000000" stroke-width="1"/>
    <path d="M91.888,78.282 L119.056,78.282 L119.056,105.463 L91.888,105.463 z" fill-opacity="0" stroke="#000000" stroke-width="1"/>
    <g>
      <path d="M26.142,37.51 C26.142,38.711 25.169,39.685 23.968,39.685 C22.768,39.685 21.795,38.711 21.795,37.51 C21.795,36.309 22.768,35.336 23.968,35.336 C25.169,35.336 26.142,36.309 26.142,37.51 z" fill="#000000"/>
      <path d="M26.142,37.51 C26.142,38.711 25.169,39.685 23.968,39.685 C22.768,39.685 21.795,38.711 21.795,37.51 C21.795,36.309 22.768,35.336 23.968,35.336 C25.169,35.336 26.142,36.309 26.142,37.51 z" fill-opacity="0" stroke="#000000" stroke-width="1"/>
    </g>
    <g>
      <path d="M53.31,37.51 C53.31,38.711 52.337,39.685 51.136,39.685 C49.936,39.685 48.963,38.711 48.963,37.51 C48.963,36.309 49.936,35.336 51.136,35.336 C52.337,35.336 53.31,36.309 53.31,37.51 z" fill="#000000"/>
      <path d="M53.31,37.51 C53.31,38.711 52.337,39.685 51.136,39.685 C49.936,39.685 48.963,38.711 48.963,37.51 C48.963,36.309 49.936,35.336 51.136,35.336 C52.337,35.336 53.31,36.309 53.31,37.51 z" fill-opacity="0" stroke="#000000" stroke-width="1"/>
    </g>
    <g>
      <path d="M80.478,37.51 C80.478,38.711 79.505,39.685 78.304,39.685 C77.104,39.685 76.131,38.711 76.131,37.51 C76.131,36.309 77.104,35.336 78.304,35.336 C79.505,35.336 80.478,36.309 80.478,37.51 z" fill="#000000"/>
      <path d="M80.478,37.51 C80.478,38.711 79.505,39.685 78.304,39.685 C77.104,39.685 76.131,38.711 76.131,37.51 C76.131,36.309 77.104,35.336 78.304,35.336 C79.505,35.336 80.478,36.309 80.478,37.51 z" fill-opacity="0" stroke="#000000" stroke-width="1"/>
    </g>
    <g>
      <path d="M107.646,37.51 C107.646,38.711 106.672,39.685 105.472,39.685 C104.272,39.685 103.299,38.711 103.299,37.51 C103.299,36.309 104.272,35.336 105.472,35.336 C106.672,35.336 107.646,36.309 107.646,37.51 z" fill="#000000"/>
      <path d="M107.646,37.51 C107.646,38.711 106.672,39.685 105.472,39.685 C104.272,39.685 103.299,38.711 103.299,37.51 C103.299,36.309 104.272,35.336 105.472,35.336 C106.672,35.336 107.646,36.309 107.646,37.51 z" fill-opacity="0" stroke="#000000" stroke-width="1"/>
    </g>
    <g>
      <path d="M26.142,64.691 C26.142,65.892 25.169,66.866 23.968,66.866 C22.768,66.866 21.795,65.892 21.795,64.691 C21.795,63.49 22.768,62.517 23.968,62.517 C25.169,62.517 26.142,63.49 26.142,64.691 z" fill="#000000"/>
      <path d="M26.142,64.691 C26.142,65.892 25.169,66.866 23.968,66.866 C22.768,66.866 21.795,65.892 21.795,64.691 C21.795,63.49 22.768,62.517 23.968,62.517 C25.169,62.517 26.142,63.49 26.142,64.691 z" fill-opacity="0" stroke="#000000" stroke-width="1"/>
    </g>
    <g>
      <path d="M53.31,64.691 C53.31,65.892 52.337,66.866 51.136,66.866 C49.936,66.866 48.963,65.892 48.963,64.691 C48.963,63.49 49.936,62.517 51.136,62.517 C52.337,62.517 53.31,63.49 53.31,64.691 z" fill="#000000"/>
      <path d="M53.31,64.691 C53.31,65.892 52.337,66.866 51.136,66.866 C49.936,66.866 48.963,65.892 48.963,64.691 C48.963,63.49 49.936,62.517 51.136,62.517 C52.337,62.517 53.31,63.49 53.31,64.691 z" fill-opacity="0" stroke="#000000" stroke-width="1"/>
    </g>
    <g>
      <path d="M80.478,64.691 C80.478,65.892 79.505,66.866 78.304,66.866 C77.104,66.866 76.131,65.892 76.131,64.691 C76.131,63.49 77.104,62.517 78.304,62.517 C79.505,62.517 80.478,63.49 80.478,64.691 z" fill="#000000"/>
      <path d="M80.478,64.691 C80.478,65.892 79.505,66.866 78.304,66.866 C77.104,66.866 76.131,65.892 76.131,64.691 C76.131,63.49 77.104,62.517 78.304,62.517 C79.505,62.517 80.478,63.49 80.478,64.691 z" fill-opacity="0" stroke="#000000" stroke-width="1"/>
    </g>
    <g>
      <path d="M107.646,64.691 C107.646,65.892 106.672,66.866 105.472,66.866 C104.272,66.866 103.299,65.892 103.299,64.691 C103.299,63.49 104.272,62.517 105.472,62.517 C106.672,62.517 107.646,63.49 107.646,64.691 z" fill="#000000"/>
      <path d="M107.646,64.691 C107.646,65.892 106.672,66.866 105.472,66.866 C104.272,66.866 103.299,65.892 103.299,64.691 C103.299,63.49 104.272,62.517 105.472,62.517 C106.672,62.517 107.646,63.49 107.646,64.691 z" fill-opacity="0" stroke="#000000" stroke-width="1"/>
    </g>
    <g>
      <path d="M26.142,91.872 C26.142,93.073 25.169,94.047 23.968,94.047 C22.768,94.047 21.795,93.073 21.795,91.872 C21.795,90.672 22.768,89.698 23.968,89.698 C25.169,89.698 26.142,90.672 26.142,91.872 z" fill="#000000"/>
      <path d="M26.142,91.872 C26.142,93.073 25.169,94.047 23.968,94.047 C22.768,94.047 21.795,93.073 21.795,91.872 C21.795,90.672 22.768,89.698 23.968,89.698 C25.169,89.698 26.142,90.672 26.142,91.872 z" fill-opacity="0" stroke="#000000" stroke-width="1"/>
    </g>
    <g>
      <path d="M53.31,91.872 C53.31,93.073 52.337,94.047 51.136,94.047 C49.936,94.047 48.963,93.073 48.963,91.872 C48.963,90.672 49.936,89.698 51.136,89.698 C52.337,89.698 53.31,90.672 53.31,91.872 z" fill="#000000"/>
      <path d="M53.31,91.872 C53.31,93.073 52.337,94.047 51.136,94.047 C49.936,94.047 48.963,93.073 48.963,91.872 C48.963,90.672 49.936,89.698 51.136,89.698 C52.337,89.698 53.31,90.672 53.31,91.872 z" fill-opacity="0" stroke="#000000" stroke-width="1"/>
    </g>
    <g>
      <path d="M80.478,91.872 C80.478,93.073 79.505,94.047 78.304,94.047 C77.104,94.047 76.131,93.073 76.131,91.872 C76.131,90.672 77.104,89.698 78.304,89.698 C79.505,89.698 80.478,90.672 80.478,91.872 z" fill="#000000"/>
      <path d="M80.478,91.872 C80.478,93.073 79.505,94.047 78.304,94.047 C77.104,94.047 76.131,93.073 76.131,91.872 C76.131,90.672 77.104,89.698 78.304,89.698 C79.505,89.698 80.478,90.672 80.478,91.872 z" fill-opacity="0" stroke="#000000" stroke-width="1"/>
    </g>
    <g>
      <path d="M107.646,91.872 C107.646,93.073 106.672,94.047 105.472,94.047 C104.272,94.047 103.299,93.073 103.299,91.872 C103.299,90.672 104.272,89.698 105.472,89.698 C106.672,89.698 107.646,90.672 107.646,91.872 z" fill="#000000"/>
      <path d="M107.646,91.872 C107.646,93.073 106.672,94.047 105.472,94.047 C104.272,94.047 103.299,93.073 103.299,91.872 C103.299,90.672 104.272,89.698 105.472,89.698 C106.672,89.698 107.646,90.672 107.646,91.872 z" fill-opacity="0" stroke="#000000" stroke-width="1"/>
    </g>
    <g>
      <path d="M26.142,119.054 C26.142,120.255 25.169,121.228 23.968,121.228 C22.768,121.228 21.795,120.255 21.795,119.054 C21.795,117.853 22.768,116.879 23.968,116.879 C25.169,116.879 26.142,117.853 26.142,119.054 z" fill="#000000"/>
      <path d="M26.142,119.054 C26.142,120.255 25.169,121.228 23.968,121.228 C22.768,121.228 21.795,120.255 21.795,119.054 C21.795,117.853 22.768,116.879 23.968,116.879 C25.169,116.879 26.142,117.853 26.142,119.054 z" fill-opacity="0" stroke="#000000" stroke-width="1"/>
    </g>
    <g>
      <path d="M53.31,119.054 C53.31,120.255 52.337,121.228 51.136,121.228 C49.936,121.228 48.963,120.255 48.963,119.054 C48.963,117.853 49.936,116.879 51.136,116.879 C52.337,116.879 53.31,117.853 53.31,119.054 z" fill="#000000"/>
      <path d="M53.31,119.054 C53.31,120.255 52.337,121.228 51.136,121.228 C49.936,121.228 48.963,120.255 48.963,119.054 C48.963,117.853 49.936,116.879 51.136,116.879 C52.337,116.879 53.31,117.853 53.31,119.054 z" fill-opacity="0" stroke="#000000" stroke-width="1"/>
    </g>
    <g>
      <path d="M80.478,119.054 C80.478,120.255 79.505,121.228 78.304,121.228 C77.104,121.228 76.131,120.255 76.131,119.054 C76.131,117.853 77.104,116.879 78.304,116.879 C79.505,116.879 80.478,117.853 80.478,119.054 z" fill="#000000"/>
      <path d="M80.478,119.054 C80.478,120.255 79.505,121.228 78.304,121.228 C77.104,121.228 76.131,120.255 76.131,119.054 C76.131,117.853 77.104,116.879 78.304,116.879 C79.505,116.879 80.478,117.853 80.478,119.054 z" fill-opacity="0" stroke="#000000" stroke-width="1"/>
    </g>
    <g>
      <path d="M139.342,119.054 C139.342,120.255 138.368,121.228 137.168,121.228 C135.968,121.228 134.995,120.255 134.995,119.054 C134.995,117.853 135.968,116.879 137.168,116.879 C138.368,116.879 139.342,117.853 139.342,119.054 z" fill="#000000"/>
      <path d="M139.342,119.054 C139.342,120.255 138.368,121.228 137.168,121.228 C135.968,121.228 134.995,120.255 134.995,119.054 C134.995,117.853 135.968,116.879 137.168,116.879 C138.368,116.879 139.342,117.853 139.342,119.054 z" fill-opacity="0" stroke="#000000" stroke-width="1"/>
    </g>
    <g>
      <path d="M139.342,119.054 C139.342,120.255 138.368,121.228 137.168,121.228 C135.968,121.228 134.995,120.255 134.995,119.054 C134.995,117.853 135.968,116.879 137.168,116.879 C138.368,116.879 139.342,117.853 139.342,119.054 z" fill="#FFFFFF"/>
      <path d="M139.342,119.054 C139.342,120.255 138.368,121.228 137.168,121.228 C135.968,121.228 134.995,120.255 134.995,119.054 C134.995,117.853 135.968,116.879 137.168,116.879 C138.368,116.879 139.342,117.853 139.342,119.054 z" fill-opacity="0" stroke="#000000" stroke-width="1"/>
    </g>
    <path d="M139.342,119.054 C139.342,120.255 138.368,121.228 137.168,121.228 C135.968,121.228 134.995,120.255 134.995,119.054 C134.995,117.853 135.968,116.879 137.168,116.879 C138.368,116.879 139.342,117.853 139.342,119.054 z" fill-opacity="0" stroke="#000000" stroke-width="1"/>
    <g>
      <path d="M107.646,119.054 C107.646,120.255 106.672,121.228 105.472,121.228 C104.272,121.228 103.299,120.255 103.299,119.054 C103.299,117.853 104.272,116.879 105.472,116.879 C106.672,116.879 107.646,117.853 107.646,119.054 z" fill="#000000"/>
      <path d="M107.646,119.054 C107.646,120.255 106.672,121.228 105.472,121.228 C104.272,121.228 103.299,120.255 103.299,119.054 C103.299,117.853 104.272,116.879 105.472,116.879 C106.672,116.879 107.646,117.853 107.646,119.054 z" fill-opacity="0" stroke="#000000" stroke-width="1"/>
    </g>
    <path d="M1.328,14.859 L445.072,14.859 L445.072,286.671 L1.328,286.671 z" fill-opacity="0" stroke="#000000" stroke-width="1"/>
    <path d="M23.968,37.51 L395.264,37.51 L395.264,241.369 L23.968,241.369 z" fill-opacity="0" stroke="#000000" stroke-width="1" stroke-dasharray="4,4"/>
    <g>
      <path d="M91.888,137.174 L91.888,159.826" fill="#FFFFFF"/>
      <path d="M91.888,137.174 L91.888,159.826" fill-opacity="0" stroke="#000000" stroke-width="1" stroke-dasharray="0.667,3"/>
    </g>
    <g>
      <path d="M119.056,137.174 L119.056,159.826" fill="#FFFFFF"/>
      <path d="M119.056,137.174 L119.056,159.826" fill-opacity="0" stroke="#000000" stroke-width="1" stroke-dasharray="0.667,3"/>
    </g>
    <g>
      <path d="M91.888,159.826 L119.056,159.826" fill="#FFFFFF"/>
      <path d="M91.888,159.826 L119.056,159.826" fill-opacity="0" stroke="#000000" stroke-width="1"/>
    </g>
    <path d="M42.08,22.389 L150.752,22.389 L150.752,131.114 L42.08,131.114 z" fill-opacity="0" stroke="#000000" stroke-width="1" stroke-dasharray="1.429,1.429"/>
    <path d="M105.472,114.523 L105.532,114.463 L105.653,114.282 L105.834,113.919 L106.197,113.436 L106.619,112.893 L107.163,112.168 L107.766,111.383 L108.43,110.537 L109.215,109.752 L110.06,108.906 L110.966,108.181 L111.992,107.456 L113.079,106.852 L114.347,106.309 L115.736,105.886 L117.366,105.584 L119.056,105.463 L120.807,105.584 L122.558,105.886 L124.188,106.309 L125.697,106.852 L127.146,107.456 L128.535,108.181 L129.803,108.906 L131.01,109.752 L132.217,110.537 L133.304,111.383 L134.331,112.168 L135.176,112.893 L135.9,113.436 L134.391,112.168" fill-opacity="0" stroke="#000000" stroke-width="1" stroke-dasharray="1.429,1.429" stroke-linejoin="bevel"/>
    <g>
      <path d="M133.425,113.738 L137.41,114.705 L135.78,110.96 L133.425,113.738 z" fill="#000000"/>
      <path d="M133.425,113.738 L137.41,114.705 L135.78,110.96 L133.425,113.738 z" fill-opacity="0" stroke="#000000" stroke-width="1" stroke-miterlimit="8"/>
    </g>
    <path d="M300.176,146.235 L327.344,146.235 L327.344,173.416 L300.176,173.416 z" fill-opacity="0" stroke="#000000" stroke-width="1"/>
    <text transform="matrix(1, 0, 0, 1, 223.2, 54.517)">
      <tspan x="-36.032" y="4" font-family="Helvetica" font-size="12" fill="#000000">bounding box</tspan>
    </text>
    <text transform="matrix(1, 0, 0, 1, 105.472, 170)">
      <tspan x="-20.344" y="4" font-family="Helvetica" font-size="12" fill="#000000">bin size</tspan>
    </text>
    <text transform="matrix(1, 0, 0, 1, 174.429, 97.463)">
      <tspan x="-37.02" y="4" font-family="Helvetica" font-size="12" fill="#000000">sampling step</tspan>
    </text>
    <text transform="matrix(1, 0, 0, 1, 223.2, 8)">
      <tspan x="-37.688" y="4" font-family="Helvetica" font-size="12" fill="#000000">image domain</tspan>
    </text>
  </g>
  <defs/>
</svg>
