<?xml version="1.0" encoding="UTF-8"?>
<!DOCTYPE svg PUBLIC "-//W3C//DTD SVG 1.1//EN" "http://www.w3.org/Graphics/SVG/1.1/DTD/svg11.dtd">
<svg version="1.1" xmlns="http://www.w3.org/2000/svg" xmlns:xlink="http://www.w3.org/1999/xlink" x="0px" y="0px" width="595.276" height="822.047" viewBox="0, 0, 595.276, 822.047">
  <g id="Layer 1">
    <g>
      <g>
        <path d="M12.5,12.5 L36.5,12.5 L36.5,36.5 L12.5,36.5 z" fill="#000000"/>
        <path d="M12.5,12.5 L36.5,12.5 L36.5,36.5 L12.5,36.5 z" fill-opacity="0" stroke="#FFFFFF" stroke-width="2"/>
      </g>
      <g>
        <path d="M12.5,12.5 L36.5,12.5 L36.5,36.5 L12.5,36.5 z" fill="#000000"/>
        <path d="M12.5,12.5 L36.5,12.5 L36.5,36.5 L12.5,36.5 z" fill-opacity="0" stroke="#FFFFFF" stroke-width="2"/>
      </g>
    </g>
    <g>
      <g>
        <path d="M36.5,12.5 L60.5,12.5 L60.5,36.5 L36.5,36.5 z" fill="#000000"/>
        <path d="M36.5,12.5 L60.5,12.5 L60.5,36.5 L36.5,36.5 z" fill-opacity="0" stroke="#FFFFFF" stroke-width="2"/>
      </g>
      <g>
        <path d="M36.5,12.5 L60.5,12.5 L60.5,36.5 L36.5,36.5 z" fill="#000000"/>
        <path d="M36.5,12.5 L60.5,12.5 L60.5,36.5 L36.5,36.5 z" fill-opacity="0" stroke="#FFFFFF" stroke-width="2"/>
      </g>
    </g>
    <g>
      <g>
        <path d="M60.5,12.5 L84.5,12.5 L84.5,36.5 L60.5,36.5 z" fill="#000000"/>
        <path d="M60.5,12.5 L84.5,12.5 L84.5,36.5 L60.5,36.5 z" fill-opacity="0" stroke="#FFFFFF" stroke-width="2"/>
      </g>
      <g>
        <path d="M60.5,12.5 L84.5,12.5 L84.5,36.5 L60.5,36.5 z" fill="#000000"/>
        <path d="M60.5,12.5 L84.5,12.5 L84.5,36.5 L60.5,36.5 z" fill-opacity="0" stroke="#FFFFFF" stroke-width="2"/>
      </g>
    </g>
    <g>
      <g>
        <path d="M12.5,36.5 L36.5,36.5 L36.5,60.5 L12.5,60.5 z" fill="#000000"/>
        <path d="M12.5,36.5 L36.5,36.5 L36.5,60.5 L12.5,60.5 z" fill-opacity="0" stroke="#FFFFFF" stroke-width="2"/>
      </g>
      <g>
        <path d="M12.5,36.5 L36.5,36.5 L36.5,60.5 L12.5,60.5 z" fill="#000000"/>
        <path d="M12.5,36.5 L36.5,36.5 L36.5,60.5 L12.5,60.5 z" fill-opacity="0" stroke="#FFFFFF" stroke-width="2"/>
      </g>
    </g>
    <g>
      <g>
        <path d="M36.5,36.5 L60.5,36.5 L60.5,60.5 L36.5,60.5 z" fill="#000000"/>
        <path d="M36.5,36.5 L60.5,36.5 L60.5,60.5 L36.5,60.5 z" fill-opacity="0" stroke="#FFFFFF" stroke-width="2"/>
      </g>
      <g>
        <path d="M36.5,36.5 L60.5,36.5 L60.5,60.5 L36.5,60.5 z" fill="#000000"/>
        <path d="M36.5,36.5 L60.5,36.5 L60.5,60.5 L36.5,60.5 z" fill-opacity="0" stroke="#FFFFFF" stroke-width="2"/>
      </g>
    </g>
    <g>
      <g>
        <path d="M12.5,60.5 L36.5,60.5 L36.5,84.5 L12.5,84.5 z" fill="#000000"/>
        <path d="M12.5,60.5 L36.5,60.5 L36.5,84.5 L12.5,84.5 z" fill-opacity="0" stroke="#FFFFFF" stroke-width="2"/>
      </g>
      <g>
        <path d="M12.5,60.5 L36.5,60.5 L36.5,84.5 L12.5,84.5 z" fill="#000000"/>
        <path d="M12.5,60.5 L36.5,60.5 L36.5,84.5 L12.5,84.5 z" fill-opacity="0" stroke="#FFFFFF" stroke-width="2"/>
      </g>
    </g>
    <g>
      <g>
        <path d="M36.5,60.5 L60.5,60.5 L60.5,84.5 L36.5,84.5 z" fill="#000000"/>
        <path d="M36.5,60.5 L60.5,60.5 L60.5,84.5 L36.5,84.5 z" fill-opacity="0" stroke="#FFFFFF" stroke-width="2"/>
      </g>
      <g>
        <path d="M36.5,60.5 L60.5,60.5 L60.5,84.5 L36.5,84.5 z" fill="#000000"/>
        <path d="M36.5,60.5 L60.5,60.5 L60.5,84.5 L36.5,84.5 z" fill-opacity="0" stroke="#FFFFFF" stroke-width="2"/>
      </g>
    </g>
    <g>
      <g>
        <path d="M60.5,60.5 L84.5,60.5 L84.5,84.5 L60.5,84.5 z" fill="#000000"/>
        <path d="M60.5,60.5 L84.5,60.5 L84.5,84.5 L60.5,84.5 z" fill-opacity="0" stroke="#FFFFFF" stroke-width="2"/>
      </g>
      <g>
        <path d="M60.5,60.5 L84.5,60.5 L84.5,84.5 L60.5,84.5 z" fill="#000000"/>
        <path d="M60.5,60.5 L84.5,60.5 L84.5,84.5 L60.5,84.5 z" fill-opacity="0" stroke="#FFFFFF" stroke-width="2"/>
      </g>
    </g>
    <g>
      <g>
        <path d="M108.5,12.5 L132.5,12.5 L132.5,36.5 L108.5,36.5 z" fill="#000000"/>
        <path d="M108.5,12.5 L132.5,12.5 L132.5,36.5 L108.5,36.5 z" fill-opacity="0" stroke="#FFFFFF" stroke-width="2"/>
      </g>
      <g>
        <path d="M108.5,12.5 L132.5,12.5 L132.5,36.5 L108.5,36.5 z" fill="#000000"/>
        <path d="M108.5,12.5 L132.5,12.5 L132.5,36.5 L108.5,36.5 z" fill-opacity="0" stroke="#FFFFFF" stroke-width="2"/>
      </g>
    </g>
    <g>
      <g>
        <path d="M132.5,12.5 L156.5,12.5 L156.5,36.5 L132.5,36.5 z" fill="#000000"/>
        <path d="M132.5,12.5 L156.5,12.5 L156.5,36.5 L132.5,36.5 z" fill-opacity="0" stroke="#FFFFFF" stroke-width="2"/>
      </g>
      <g>
        <path d="M132.5,12.5 L156.5,12.5 L156.5,36.5 L132.5,36.5 z" fill="#000000"/>
        <path d="M132.5,12.5 L156.5,12.5 L156.5,36.5 L132.5,36.5 z" fill-opacity="0" stroke="#FFFFFF" stroke-width="2"/>
      </g>
    </g>
    <g>
      <g>
        <path d="M156.5,12.5 L180.5,12.5 L180.5,36.5 L156.5,36.5 z" fill="#000000"/>
        <path d="M156.5,12.5 L180.5,12.5 L180.5,36.5 L156.5,36.5 z" fill-opacity="0" stroke="#FFFFFF" stroke-width="2"/>
      </g>
      <g>
        <path d="M156.5,12.5 L180.5,12.5 L180.5,36.5 L156.5,36.5 z" fill="#000000"/>
        <path d="M156.5,12.5 L180.5,12.5 L180.5,36.5 L156.5,36.5 z" fill-opacity="0" stroke="#FFFFFF" stroke-width="2"/>
      </g>
    </g>
    <g>
      <g>
        <path d="M108.5,36.5 L132.5,36.5 L132.5,60.5 L108.5,60.5 z" fill="#000000"/>
        <path d="M108.5,36.5 L132.5,36.5 L132.5,60.5 L108.5,60.5 z" fill-opacity="0" stroke="#FFFFFF" stroke-width="2"/>
      </g>
      <g>
        <path d="M108.5,36.5 L132.5,36.5 L132.5,60.5 L108.5,60.5 z" fill="#000000"/>
        <path d="M108.5,36.5 L132.5,36.5 L132.5,60.5 L108.5,60.5 z" fill-opacity="0" stroke="#FFFFFF" stroke-width="2"/>
      </g>
    </g>
    <g>
      <g>
        <path d="M132.5,36.5 L156.5,36.5 L156.5,60.5 L132.5,60.5 z" fill="#000000"/>
        <path d="M132.5,36.5 L156.5,36.5 L156.5,60.5 L132.5,60.5 z" fill-opacity="0" stroke="#FFFFFF" stroke-width="2"/>
      </g>
      <g>
        <path d="M132.5,36.5 L156.5,36.5 L156.5,60.5 L132.5,60.5 z" fill="#000000"/>
        <path d="M132.5,36.5 L156.5,36.5 L156.5,60.5 L132.5,60.5 z" fill-opacity="0" stroke="#FFFFFF" stroke-width="2"/>
      </g>
    </g>
    <g>
      <g>
        <path d="M156.5,36.5 L180.5,36.5 L180.5,60.5 L156.5,60.5 z" fill="#000000"/>
        <path d="M156.5,36.5 L180.5,36.5 L180.5,60.5 L156.5,60.5 z" fill-opacity="0" stroke="#FFFFFF" stroke-width="2"/>
      </g>
      <g>
        <path d="M156.5,36.5 L180.5,36.5 L180.5,60.5 L156.5,60.5 z" fill="#000000"/>
        <path d="M156.5,36.5 L180.5,36.5 L180.5,60.5 L156.5,60.5 z" fill-opacity="0" stroke="#FFFFFF" stroke-width="2"/>
      </g>
    </g>
    <g>
      <g>
        <path d="M108.5,60.5 L132.5,60.5 L132.5,84.5 L108.5,84.5 z" fill="#000000"/>
        <path d="M108.5,60.5 L132.5,60.5 L132.5,84.5 L108.5,84.5 z" fill-opacity="0" stroke="#FFFFFF" stroke-width="2"/>
      </g>
      <g>
        <path d="M108.5,60.5 L132.5,60.5 L132.5,84.5 L108.5,84.5 z" fill="#000000"/>
        <path d="M108.5,60.5 L132.5,60.5 L132.5,84.5 L108.5,84.5 z" fill-opacity="0" stroke="#FFFFFF" stroke-width="2"/>
      </g>
    </g>
    <g>
      <g>
        <path d="M132.5,60.5 L156.5,60.5 L156.5,84.5 L132.5,84.5 z" fill="#000000"/>
        <path d="M132.5,60.5 L156.5,60.5 L156.5,84.5 L132.5,84.5 z" fill-opacity="0" stroke="#FFFFFF" stroke-width="2"/>
      </g>
      <g>
        <path d="M132.5,60.5 L156.5,60.5 L156.5,84.5 L132.5,84.5 z" fill="#000000"/>
        <path d="M132.5,60.5 L156.5,60.5 L156.5,84.5 L132.5,84.5 z" fill-opacity="0" stroke="#FFFFFF" stroke-width="2"/>
      </g>
    </g>
    <g>
      <g>
        <path d="M204.5,12.5 L228.5,12.5 L228.5,36.5 L204.5,36.5 z" fill="#000000"/>
        <path d="M204.5,12.5 L228.5,12.5 L228.5,36.5 L204.5,36.5 z" fill-opacity="0" stroke="#FFFFFF" stroke-width="2"/>
      </g>
      <g>
        <path d="M204.5,12.5 L228.5,12.5 L228.5,36.5 L204.5,36.5 z" fill="#000000"/>
        <path d="M204.5,12.5 L228.5,12.5 L228.5,36.5 L204.5,36.5 z" fill-opacity="0" stroke="#FFFFFF" stroke-width="2"/>
      </g>
    </g>
    <g>
      <g>
        <path d="M228.5,12.5 L252.5,12.5 L252.5,36.5 L228.5,36.5 z" fill="#000000"/>
        <path d="M228.5,12.5 L252.5,12.5 L252.5,36.5 L228.5,36.5 z" fill-opacity="0" stroke="#FFFFFF" stroke-width="2"/>
      </g>
      <g>
        <path d="M228.5,12.5 L252.5,12.5 L252.5,36.5 L228.5,36.5 z" fill="#000000"/>
        <path d="M228.5,12.5 L252.5,12.5 L252.5,36.5 L228.5,36.5 z" fill-opacity="0" stroke="#FFFFFF" stroke-width="2"/>
      </g>
    </g>
    <g>
      <g>
        <path d="M252.5,12.5 L276.5,12.5 L276.5,36.5 L252.5,36.5 z" fill="#000000"/>
        <path d="M252.5,12.5 L276.5,12.5 L276.5,36.5 L252.5,36.5 z" fill-opacity="0" stroke="#FFFFFF" stroke-width="2"/>
      </g>
      <g>
        <path d="M252.5,12.5 L276.5,12.5 L276.5,36.5 L252.5,36.5 z" fill="#000000"/>
        <path d="M252.5,12.5 L276.5,12.5 L276.5,36.5 L252.5,36.5 z" fill-opacity="0" stroke="#FFFFFF" stroke-width="2"/>
      </g>
    </g>
    <g>
      <g>
        <path d="M204.5,36.5 L228.5,36.5 L228.5,60.5 L204.5,60.5 z" fill="#000000"/>
        <path d="M204.5,36.5 L228.5,36.5 L228.5,60.5 L204.5,60.5 z" fill-opacity="0" stroke="#FFFFFF" stroke-width="2"/>
      </g>
      <g>
        <path d="M204.5,36.5 L228.5,36.5 L228.5,60.5 L204.5,60.5 z" fill="#000000"/>
        <path d="M204.5,36.5 L228.5,36.5 L228.5,60.5 L204.5,60.5 z" fill-opacity="0" stroke="#FFFFFF" stroke-width="2"/>
      </g>
    </g>
    <g>
      <g>
        <path d="M228.5,36.5 L252.5,36.5 L252.5,60.5 L228.5,60.5 z" fill="#000000"/>
        <path d="M228.5,36.5 L252.5,36.5 L252.5,60.5 L228.5,60.5 z" fill-opacity="0" stroke="#FFFFFF" stroke-width="2"/>
      </g>
      <g>
        <path d="M228.5,36.5 L252.5,36.5 L252.5,60.5 L228.5,60.5 z" fill="#000000"/>
        <path d="M228.5,36.5 L252.5,36.5 L252.5,60.5 L228.5,60.5 z" fill-opacity="0" stroke="#FFFFFF" stroke-width="2"/>
      </g>
    </g>
    <g>
      <g>
        <path d="M252.5,36.5 L276.5,36.5 L276.5,60.5 L252.5,60.5 z" fill="#000000"/>
        <path d="M252.5,36.5 L276.5,36.5 L276.5,60.5 L252.5,60.5 z" fill-opacity="0" stroke="#FFFFFF" stroke-width="2"/>
      </g>
      <g>
        <path d="M252.5,36.5 L276.5,36.5 L276.5,60.5 L252.5,60.5 z" fill="#000000"/>
        <path d="M252.5,36.5 L276.5,36.5 L276.5,60.5 L252.5,60.5 z" fill-opacity="0" stroke="#FFFFFF" stroke-width="2"/>
      </g>
    </g>
    <g>
      <g>
        <path d="M204.5,60.5 L228.5,60.5 L228.5,84.5 L204.5,84.5 z" fill="#000000"/>
        <path d="M204.5,60.5 L228.5,60.5 L228.5,84.5 L204.5,84.5 z" fill-opacity="0" stroke="#FFFFFF" stroke-width="2"/>
      </g>
      <g>
        <path d="M204.5,60.5 L228.5,60.5 L228.5,84.5 L204.5,84.5 z" fill="#000000"/>
        <path d="M204.5,60.5 L228.5,60.5 L228.5,84.5 L204.5,84.5 z" fill-opacity="0" stroke="#FFFFFF" stroke-width="2"/>
      </g>
    </g>
    <g>
      <g>
        <path d="M252.5,60.5 L276.5,60.5 L276.5,84.5 L252.5,84.5 z" fill="#000000"/>
        <path d="M252.5,60.5 L276.5,60.5 L276.5,84.5 L252.5,84.5 z" fill-opacity="0" stroke="#FFFFFF" stroke-width="2"/>
      </g>
      <g>
        <path d="M252.5,60.5 L276.5,60.5 L276.5,84.5 L252.5,84.5 z" fill="#000000"/>
        <path d="M252.5,60.5 L276.5,60.5 L276.5,84.5 L252.5,84.5 z" fill-opacity="0" stroke="#FFFFFF" stroke-width="2"/>
      </g>
    </g>
    <g>
      <g>
        <path d="M332.663,12.5 L356.663,12.5 L356.663,36.5 L332.663,36.5 z" fill="#000000"/>
        <path d="M332.663,12.5 L356.663,12.5 L356.663,36.5 L332.663,36.5 z" fill-opacity="0" stroke="#FFFFFF" stroke-width="2"/>
      </g>
      <g>
        <path d="M332.663,12.5 L356.663,12.5 L356.663,36.5 L332.663,36.5 z" fill="#000000"/>
        <path d="M332.663,12.5 L356.663,12.5 L356.663,36.5 L332.663,36.5 z" fill-opacity="0" stroke="#FFFFFF" stroke-width="2"/>
      </g>
    </g>
    <g>
      <g>
        <path d="M356.663,12.5 L380.663,12.5 L380.663,36.5 L356.663,36.5 z" fill="#000000"/>
        <path d="M356.663,12.5 L380.663,12.5 L380.663,36.5 L356.663,36.5 z" fill-opacity="0" stroke="#FFFFFF" stroke-width="2"/>
      </g>
      <g>
        <path d="M356.663,12.5 L380.663,12.5 L380.663,36.5 L356.663,36.5 z" fill="#000000"/>
        <path d="M356.663,12.5 L380.663,12.5 L380.663,36.5 L356.663,36.5 z" fill-opacity="0" stroke="#FFFFFF" stroke-width="2"/>
      </g>
    </g>
    <g>
      <g>
        <path d="M380.663,12.5 L404.663,12.5 L404.663,36.5 L380.663,36.5 z" fill="#000000"/>
        <path d="M380.663,12.5 L404.663,12.5 L404.663,36.5 L380.663,36.5 z" fill-opacity="0" stroke="#FFFFFF" stroke-width="2"/>
      </g>
      <g>
        <path d="M380.663,12.5 L404.663,12.5 L404.663,36.5 L380.663,36.5 z" fill="#000000"/>
        <path d="M380.663,12.5 L404.663,12.5 L404.663,36.5 L380.663,36.5 z" fill-opacity="0" stroke="#FFFFFF" stroke-width="2"/>
      </g>
    </g>
    <g>
      <g>
        <path d="M332.663,36.5 L356.663,36.5 L356.663,60.5 L332.663,60.5 z" fill="#000000"/>
        <path d="M332.663,36.5 L356.663,36.5 L356.663,60.5 L332.663,60.5 z" fill-opacity="0" stroke="#FFFFFF" stroke-width="2"/>
      </g>
      <g>
        <path d="M332.663,36.5 L356.663,36.5 L356.663,60.5 L332.663,60.5 z" fill="#000000"/>
        <path d="M332.663,36.5 L356.663,36.5 L356.663,60.5 L332.663,60.5 z" fill-opacity="0" stroke="#FFFFFF" stroke-width="2"/>
      </g>
    </g>
    <g>
      <g>
        <path d="M356.663,36.5 L380.663,36.5 L380.663,60.5 L356.663,60.5 z" fill="#000000"/>
        <path d="M356.663,36.5 L380.663,36.5 L380.663,60.5 L356.663,60.5 z" fill-opacity="0" stroke="#FFFFFF" stroke-width="2"/>
      </g>
      <g>
        <path d="M356.663,36.5 L380.663,36.5 L380.663,60.5 L356.663,60.5 z" fill="#000000"/>
        <path d="M356.663,36.5 L380.663,36.5 L380.663,60.5 L356.663,60.5 z" fill-opacity="0" stroke="#FFFFFF" stroke-width="2"/>
      </g>
    </g>
    <g>
      <g>
        <path d="M332.663,60.5 L356.663,60.5 L356.663,84.5 L332.663,84.5 z" fill="#000000"/>
        <path d="M332.663,60.5 L356.663,60.5 L356.663,84.5 L332.663,84.5 z" fill-opacity="0" stroke="#FFFFFF" stroke-width="2"/>
      </g>
      <g>
        <path d="M332.663,60.5 L356.663,60.5 L356.663,84.5 L332.663,84.5 z" fill="#000000"/>
        <path d="M332.663,60.5 L356.663,60.5 L356.663,84.5 L332.663,84.5 z" fill-opacity="0" stroke="#FFFFFF" stroke-width="2"/>
      </g>
    </g>
    <g>
      <g>
        <path d="M356.663,60.5 L380.663,60.5 L380.663,84.5 L356.663,84.5 z" fill="#000000"/>
        <path d="M356.663,60.5 L380.663,60.5 L380.663,84.5 L356.663,84.5 z" fill-opacity="0" stroke="#FFFFFF" stroke-width="2"/>
      </g>
      <g>
        <path d="M356.663,60.5 L380.663,60.5 L380.663,84.5 L356.663,84.5 z" fill="#000000"/>
        <path d="M356.663,60.5 L380.663,60.5 L380.663,84.5 L356.663,84.5 z" fill-opacity="0" stroke="#FFFFFF" stroke-width="2"/>
      </g>
    </g>
    <text transform="matrix(1, 0, 0, 1, 240.5, 92)">
      <tspan x="-3.837" y="4" font-family="Helvetica" font-size="12" fill="#000000">2</tspan>
    </text>
    <text transform="matrix(1, 0, 0, 1, 304.806, 53.02)">
      <tspan x="-7.168" y="5.5" font-family="Helvetica" font-size="16" fill="#000000">...</tspan>
    </text>
    <text transform="matrix(1, 0, 0, 1, 48.5, 92)">
      <tspan x="-3.837" y="4" font-family="Helvetica" font-size="12" fill="#000000">0</tspan>
    </text>
    <text transform="matrix(1, 0, 0, 1, 144.5, 92)">
      <tspan x="-3.837" y="4" font-family="Helvetica" font-size="12" fill="#000000">1</tspan>
    </text>
    <text transform="matrix(1, 0, 0, 1, 368.663, 92)">
      <tspan x="-3.837" y="4" font-family="Helvetica" font-size="12" fill="#000000">8</tspan>
    </text>
    <g>
      <g>
        <path d="M140.663,110.75 L164.663,110.75 L164.663,134.75 L140.663,134.75 z" fill="#000000"/>
        <path d="M140.663,110.75 L164.663,110.75 L164.663,134.75 L140.663,134.75 z" fill-opacity="0" stroke="#FFFFFF" stroke-width="2"/>
      </g>
      <g>
        <path d="M140.663,110.75 L164.663,110.75 L164.663,134.75 L140.663,134.75 z" fill="#000000"/>
        <path d="M140.663,110.75 L164.663,110.75 L164.663,134.75 L140.663,134.75 z" fill-opacity="0" stroke="#FFFFFF" stroke-width="2"/>
      </g>
    </g>
    <g>
      <g>
        <path d="M164.663,110.75 L188.663,110.75 L188.663,134.75 L164.663,134.75 z" fill="#000000"/>
        <path d="M164.663,110.75 L188.663,110.75 L188.663,134.75 L164.663,134.75 z" fill-opacity="0" stroke="#FFFFFF" stroke-width="2"/>
      </g>
      <g>
        <path d="M164.663,110.75 L188.663,110.75 L188.663,134.75 L164.663,134.75 z" fill="#000000"/>
        <path d="M164.663,110.75 L188.663,110.75 L188.663,134.75 L164.663,134.75 z" fill-opacity="0" stroke="#FFFFFF" stroke-width="2"/>
      </g>
    </g>
    <g>
      <g>
        <path d="M188.663,110.75 L212.663,110.75 L212.663,134.75 L188.663,134.75 z" fill="#000000"/>
        <path d="M188.663,110.75 L212.663,110.75 L212.663,134.75 L188.663,134.75 z" fill-opacity="0" stroke="#FFFFFF" stroke-width="2"/>
      </g>
      <g>
        <path d="M188.663,110.75 L212.663,110.75 L212.663,134.75 L188.663,134.75 z" fill="#000000"/>
        <path d="M188.663,110.75 L212.663,110.75 L212.663,134.75 L188.663,134.75 z" fill-opacity="0" stroke="#FFFFFF" stroke-width="2"/>
      </g>
    </g>
    <g>
      <g>
        <path d="M140.663,134.75 L164.663,134.75 L164.663,158.75 L140.663,158.75 z" fill="#000000"/>
        <path d="M140.663,134.75 L164.663,134.75 L164.663,158.75 L140.663,158.75 z" fill-opacity="0" stroke="#FFFFFF" stroke-width="2"/>
      </g>
      <g>
        <path d="M140.663,134.75 L164.663,134.75 L164.663,158.75 L140.663,158.75 z" fill="#000000"/>
        <path d="M140.663,134.75 L164.663,134.75 L164.663,158.75 L140.663,158.75 z" fill-opacity="0" stroke="#FFFFFF" stroke-width="2"/>
      </g>
    </g>
    <g>
      <g>
        <path d="M164.663,134.75 L188.663,134.75 L188.663,158.75 L164.663,158.75 z" fill="#000000"/>
        <path d="M164.663,134.75 L188.663,134.75 L188.663,158.75 L164.663,158.75 z" fill-opacity="0" stroke="#FFFFFF" stroke-width="2"/>
      </g>
      <g>
        <path d="M164.663,134.75 L188.663,134.75 L188.663,158.75 L164.663,158.75 z" fill="#000000"/>
        <path d="M164.663,134.75 L188.663,134.75 L188.663,158.75 L164.663,158.75 z" fill-opacity="0" stroke="#FFFFFF" stroke-width="2"/>
      </g>
    </g>
    <g>
      <g>
        <path d="M188.663,134.75 L212.663,134.75 L212.663,158.75 L188.663,158.75 z" fill="#000000"/>
        <path d="M188.663,134.75 L212.663,134.75 L212.663,158.75 L188.663,158.75 z" fill-opacity="0" stroke="#FFFFFF" stroke-width="2"/>
      </g>
      <g>
        <path d="M188.663,134.75 L212.663,134.75 L212.663,158.75 L188.663,158.75 z" fill="#000000"/>
        <path d="M188.663,134.75 L212.663,134.75 L212.663,158.75 L188.663,158.75 z" fill-opacity="0" stroke="#FFFFFF" stroke-width="2"/>
      </g>
    </g>
    <g>
      <g>
        <path d="M140.663,158.75 L164.663,158.75 L164.663,182.75 L140.663,182.75 z" fill="#000000"/>
        <path d="M140.663,158.75 L164.663,158.75 L164.663,182.75 L140.663,182.75 z" fill-opacity="0" stroke="#FFFFFF" stroke-width="2"/>
      </g>
      <g>
        <path d="M140.663,158.75 L164.663,158.75 L164.663,182.75 L140.663,182.75 z" fill="#000000"/>
        <path d="M140.663,158.75 L164.663,158.75 L164.663,182.75 L140.663,182.75 z" fill-opacity="0" stroke="#FFFFFF" stroke-width="2"/>
      </g>
    </g>
    <g>
      <g>
        <path d="M164.663,158.75 L188.663,158.75 L188.663,182.75 L164.663,182.75 z" fill="#000000"/>
        <path d="M164.663,158.75 L188.663,158.75 L188.663,182.75 L164.663,182.75 z" fill-opacity="0" stroke="#FFFFFF" stroke-width="2"/>
      </g>
      <g>
        <path d="M164.663,158.75 L188.663,158.75 L188.663,182.75 L164.663,182.75 z" fill="#000000"/>
        <path d="M164.663,158.75 L188.663,158.75 L188.663,182.75 L164.663,182.75 z" fill-opacity="0" stroke="#FFFFFF" stroke-width="2"/>
      </g>
    </g>
    <g>
      <g>
        <path d="M188.663,158.75 L212.663,158.75 L212.663,182.75 L188.663,182.75 z" fill="#000000"/>
        <path d="M188.663,158.75 L212.663,158.75 L212.663,182.75 L188.663,182.75 z" fill-opacity="0" stroke="#FFFFFF" stroke-width="2"/>
      </g>
      <g>
        <path d="M188.663,158.75 L212.663,158.75 L212.663,182.75 L188.663,182.75 z" fill="#000000"/>
        <path d="M188.663,158.75 L212.663,158.75 L212.663,182.75 L188.663,182.75 z" fill-opacity="0" stroke="#FFFFFF" stroke-width="2"/>
      </g>
    </g>
    <text transform="matrix(1, 0, 0, 1, 176.663, 190.25)">
      <tspan x="-7.174" y="4" font-family="Helvetica" font-size="12" fill="#000000">57</tspan>
    </text>
    <g>
      <g>
        <path d="M236.663,110.75 L260.663,110.75 L260.663,134.75 L236.663,134.75 z" fill="#000000"/>
        <path d="M236.663,110.75 L260.663,110.75 L260.663,134.75 L236.663,134.75 z" fill-opacity="0" stroke="#FFFFFF" stroke-width="2"/>
      </g>
      <g>
        <path d="M236.663,110.75 L260.663,110.75 L260.663,134.75 L236.663,134.75 z" fill="#000000"/>
        <path d="M236.663,110.75 L260.663,110.75 L260.663,134.75 L236.663,134.75 z" fill-opacity="0" stroke="#FFFFFF" stroke-width="2"/>
      </g>
    </g>
    <g>
      <g>
        <path d="M260.663,110.75 L284.663,110.75 L284.663,134.75 L260.663,134.75 z" fill="#000000"/>
        <path d="M260.663,110.75 L284.663,110.75 L284.663,134.75 L260.663,134.75 z" fill-opacity="0" stroke="#FFFFFF" stroke-width="2"/>
      </g>
      <g>
        <path d="M260.663,110.75 L284.663,110.75 L284.663,134.75 L260.663,134.75 z" fill="#000000"/>
        <path d="M260.663,110.75 L284.663,110.75 L284.663,134.75 L260.663,134.75 z" fill-opacity="0" stroke="#FFFFFF" stroke-width="2"/>
      </g>
    </g>
    <g>
      <g>
        <path d="M284.663,110.75 L308.663,110.75 L308.663,134.75 L284.663,134.75 z" fill="#000000"/>
        <path d="M284.663,110.75 L308.663,110.75 L308.663,134.75 L284.663,134.75 z" fill-opacity="0" stroke="#FFFFFF" stroke-width="2"/>
      </g>
      <g>
        <path d="M284.663,110.75 L308.663,110.75 L308.663,134.75 L284.663,134.75 z" fill="#000000"/>
        <path d="M284.663,110.75 L308.663,110.75 L308.663,134.75 L284.663,134.75 z" fill-opacity="0" stroke="#FFFFFF" stroke-width="2"/>
      </g>
    </g>
    <g>
      <g>
        <path d="M236.663,134.75 L260.663,134.75 L260.663,158.75 L236.663,158.75 z" fill="#000000"/>
        <path d="M236.663,134.75 L260.663,134.75 L260.663,158.75 L236.663,158.75 z" fill-opacity="0" stroke="#FFFFFF" stroke-width="2"/>
      </g>
      <g>
        <path d="M236.663,134.75 L260.663,134.75 L260.663,158.75 L236.663,158.75 z" fill="#000000"/>
        <path d="M236.663,134.75 L260.663,134.75 L260.663,158.75 L236.663,158.75 z" fill-opacity="0" stroke="#FFFFFF" stroke-width="2"/>
      </g>
    </g>
    <g>
      <g>
        <path d="M284.663,134.75 L308.663,134.75 L308.663,158.75 L284.663,158.75 z" fill="#000000"/>
        <path d="M284.663,134.75 L308.663,134.75 L308.663,158.75 L284.663,158.75 z" fill-opacity="0" stroke="#FFFFFF" stroke-width="2"/>
      </g>
      <g>
        <path d="M284.663,134.75 L308.663,134.75 L308.663,158.75 L284.663,158.75 z" fill="#000000"/>
        <path d="M284.663,134.75 L308.663,134.75 L308.663,158.75 L284.663,158.75 z" fill-opacity="0" stroke="#FFFFFF" stroke-width="2"/>
      </g>
    </g>
    <g>
      <g>
        <path d="M236.663,158.75 L260.663,158.75 L260.663,182.75 L236.663,182.75 z" fill="#000000"/>
        <path d="M236.663,158.75 L260.663,158.75 L260.663,182.75 L236.663,182.75 z" fill-opacity="0" stroke="#FFFFFF" stroke-width="2"/>
      </g>
      <g>
        <path d="M236.663,158.75 L260.663,158.75 L260.663,182.75 L236.663,182.75 z" fill="#000000"/>
        <path d="M236.663,158.75 L260.663,158.75 L260.663,182.75 L236.663,182.75 z" fill-opacity="0" stroke="#FFFFFF" stroke-width="2"/>
      </g>
    </g>
    <g>
      <g>
        <path d="M260.663,158.75 L284.663,158.75 L284.663,182.75 L260.663,182.75 z" fill="#000000"/>
        <path d="M260.663,158.75 L284.663,158.75 L284.663,182.75 L260.663,182.75 z" fill-opacity="0" stroke="#FFFFFF" stroke-width="2"/>
      </g>
      <g>
        <path d="M260.663,158.75 L284.663,158.75 L284.663,182.75 L260.663,182.75 z" fill="#000000"/>
        <path d="M260.663,158.75 L284.663,158.75 L284.663,182.75 L260.663,182.75 z" fill-opacity="0" stroke="#FFFFFF" stroke-width="2"/>
      </g>
    </g>
    <g>
      <g>
        <path d="M284.663,158.75 L308.663,158.75 L308.663,182.75 L284.663,182.75 z" fill="#000000"/>
        <path d="M284.663,158.75 L308.663,158.75 L308.663,182.75 L284.663,182.75 z" fill-opacity="0" stroke="#FFFFFF" stroke-width="2"/>
      </g>
      <g>
        <path d="M284.663,158.75 L308.663,158.75 L308.663,182.75 L284.663,182.75 z" fill="#000000"/>
        <path d="M284.663,158.75 L308.663,158.75 L308.663,182.75 L284.663,182.75 z" fill-opacity="0" stroke="#FFFFFF" stroke-width="2"/>
      </g>
    </g>
    <text transform="matrix(1, 0, 0, 1, 272.663, 190.25)">
      <tspan x="-7.174" y="4" font-family="Helvetica" font-size="12" fill="#000000">57</tspan>
    </text>
    <g>
      <g>
        <path d="M332.663,110.75 L356.663,110.75 L356.663,134.75 L332.663,134.75 z" fill="#000000"/>
        <path d="M332.663,110.75 L356.663,110.75 L356.663,134.75 L332.663,134.75 z" fill-opacity="0" stroke="#FFFFFF" stroke-width="2"/>
      </g>
      <g>
        <path d="M332.663,110.75 L356.663,110.75 L356.663,134.75 L332.663,134.75 z" fill="#000000"/>
        <path d="M332.663,110.75 L356.663,110.75 L356.663,134.75 L332.663,134.75 z" fill-opacity="0" stroke="#FFFFFF" stroke-width="2"/>
      </g>
    </g>
    <g>
      <g>
        <path d="M380.663,110.75 L404.663,110.75 L404.663,134.75 L380.663,134.75 z" fill="#000000"/>
        <path d="M380.663,110.75 L404.663,110.75 L404.663,134.75 L380.663,134.75 z" fill-opacity="0" stroke="#FFFFFF" stroke-width="2"/>
      </g>
      <g>
        <path d="M380.663,110.75 L404.663,110.75 L404.663,134.75 L380.663,134.75 z" fill="#000000"/>
        <path d="M380.663,110.75 L404.663,110.75 L404.663,134.75 L380.663,134.75 z" fill-opacity="0" stroke="#FFFFFF" stroke-width="2"/>
      </g>
    </g>
    <g>
      <path d="M356.663,134.75 L380.663,134.75 L380.663,158.75 L356.663,158.75 z" fill="#000000"/>
      <path d="M356.663,134.75 L380.663,134.75 L380.663,158.75 L356.663,158.75 z" fill-opacity="0" stroke="#FFFFFF" stroke-width="2"/>
    </g>
    <g>
      <g>
        <path d="M332.663,158.75 L356.663,158.75 L356.663,182.75 L332.663,182.75 z" fill="#000000"/>
        <path d="M332.663,158.75 L356.663,158.75 L356.663,182.75 L332.663,182.75 z" fill-opacity="0" stroke="#FFFFFF" stroke-width="2"/>
      </g>
      <g>
        <path d="M332.663,158.75 L356.663,158.75 L356.663,182.75 L332.663,182.75 z" fill="#000000"/>
        <path d="M332.663,158.75 L356.663,158.75 L356.663,182.75 L332.663,182.75 z" fill-opacity="0" stroke="#FFFFFF" stroke-width="2"/>
      </g>
    </g>
    <g>
      <g>
        <path d="M380.663,158.75 L404.663,158.75 L404.663,182.75 L380.663,182.75 z" fill="#000000"/>
        <path d="M380.663,158.75 L404.663,158.75 L404.663,182.75 L380.663,182.75 z" fill-opacity="0" stroke="#FFFFFF" stroke-width="2"/>
      </g>
      <g>
        <path d="M380.663,158.75 L404.663,158.75 L404.663,182.75 L380.663,182.75 z" fill="#000000"/>
        <path d="M380.663,158.75 L404.663,158.75 L404.663,182.75 L380.663,182.75 z" fill-opacity="0" stroke="#FFFFFF" stroke-width="2"/>
      </g>
    </g>
    <text transform="matrix(1, 0, 0, 1, 368.663, 190.25)">
      <tspan x="-7.174" y="4" font-family="Helvetica" font-size="12" fill="#000000">58</tspan>
    </text>
    <text transform="matrix(1, 0, 0, 1, 19.668, 145.25)">
      <tspan x="-7.168" y="5.5" font-family="Helvetica" font-size="16" fill="#000000">...</tspan>
    </text>
    <g>
      <g>
        <path d="M44.663,110.75 L68.663,110.75 L68.663,134.75 L44.663,134.75 z" fill="#000000"/>
        <path d="M44.663,110.75 L68.663,110.75 L68.663,134.75 L44.663,134.75 z" fill-opacity="0" stroke="#FFFFFF" stroke-width="2"/>
      </g>
      <g>
        <path d="M44.663,110.75 L68.663,110.75 L68.663,134.75 L44.663,134.75 z" fill="#000000"/>
        <path d="M44.663,110.75 L68.663,110.75 L68.663,134.75 L44.663,134.75 z" fill-opacity="0" stroke="#FFFFFF" stroke-width="2"/>
      </g>
    </g>
    <g>
      <g>
        <path d="M92.663,110.75 L116.663,110.75 L116.663,134.75 L92.663,134.75 z" fill="#000000"/>
        <path d="M92.663,110.75 L116.663,110.75 L116.663,134.75 L92.663,134.75 z" fill-opacity="0" stroke="#FFFFFF" stroke-width="2"/>
      </g>
      <g>
        <path d="M92.663,110.75 L116.663,110.75 L116.663,134.75 L92.663,134.75 z" fill="#000000"/>
        <path d="M92.663,110.75 L116.663,110.75 L116.663,134.75 L92.663,134.75 z" fill-opacity="0" stroke="#FFFFFF" stroke-width="2"/>
      </g>
    </g>
    <g>
      <g>
        <path d="M44.663,134.75 L68.663,134.75 L68.663,158.75 L44.663,158.75 z" fill="#000000"/>
        <path d="M44.663,134.75 L68.663,134.75 L68.663,158.75 L44.663,158.75 z" fill-opacity="0" stroke="#FFFFFF" stroke-width="2"/>
      </g>
      <g>
        <path d="M44.663,134.75 L68.663,134.75 L68.663,158.75 L44.663,158.75 z" fill="#000000"/>
        <path d="M44.663,134.75 L68.663,134.75 L68.663,158.75 L44.663,158.75 z" fill-opacity="0" stroke="#FFFFFF" stroke-width="2"/>
      </g>
    </g>
    <g>
      <g>
        <path d="M68.663,134.75 L92.663,134.75 L92.663,158.75 L68.663,158.75 z" fill="#000000"/>
        <path d="M68.663,134.75 L92.663,134.75 L92.663,158.75 L68.663,158.75 z" fill-opacity="0" stroke="#FFFFFF" stroke-width="2"/>
      </g>
      <g>
        <path d="M68.663,134.75 L92.663,134.75 L92.663,158.75 L68.663,158.75 z" fill="#000000"/>
        <path d="M68.663,134.75 L92.663,134.75 L92.663,158.75 L68.663,158.75 z" fill-opacity="0" stroke="#FFFFFF" stroke-width="2"/>
      </g>
    </g>
    <g>
      <g>
        <path d="M92.663,134.75 L116.663,134.75 L116.663,158.75 L92.663,158.75 z" fill="#000000"/>
        <path d="M92.663,134.75 L116.663,134.75 L116.663,158.75 L92.663,158.75 z" fill-opacity="0" stroke="#FFFFFF" stroke-width="2"/>
      </g>
      <g>
        <path d="M92.663,134.75 L116.663,134.75 L116.663,158.75 L92.663,158.75 z" fill="#000000"/>
        <path d="M92.663,134.75 L116.663,134.75 L116.663,158.75 L92.663,158.75 z" fill-opacity="0" stroke="#FFFFFF" stroke-width="2"/>
      </g>
    </g>
    <g>
      <g>
        <path d="M44.663,158.75 L68.663,158.75 L68.663,182.75 L44.663,182.75 z" fill="#000000"/>
        <path d="M44.663,158.75 L68.663,158.75 L68.663,182.75 L44.663,182.75 z" fill-opacity="0" stroke="#FFFFFF" stroke-width="2"/>
      </g>
      <g>
        <path d="M44.663,158.75 L68.663,158.75 L68.663,182.75 L44.663,182.75 z" fill="#000000"/>
        <path d="M44.663,158.75 L68.663,158.75 L68.663,182.75 L44.663,182.75 z" fill-opacity="0" stroke="#FFFFFF" stroke-width="2"/>
      </g>
    </g>
    <g>
      <g>
        <path d="M68.663,158.75 L92.663,158.75 L92.663,182.75 L68.663,182.75 z" fill="#000000"/>
        <path d="M68.663,158.75 L92.663,158.75 L92.663,182.75 L68.663,182.75 z" fill-opacity="0" stroke="#FFFFFF" stroke-width="2"/>
      </g>
      <g>
        <path d="M68.663,158.75 L92.663,158.75 L92.663,182.75 L68.663,182.75 z" fill="#000000"/>
        <path d="M68.663,158.75 L92.663,158.75 L92.663,182.75 L68.663,182.75 z" fill-opacity="0" stroke="#FFFFFF" stroke-width="2"/>
      </g>
    </g>
    <g>
      <g>
        <path d="M92.663,158.75 L116.663,158.75 L116.663,182.75 L92.663,182.75 z" fill="#000000"/>
        <path d="M92.663,158.75 L116.663,158.75 L116.663,182.75 L92.663,182.75 z" fill-opacity="0" stroke="#FFFFFF" stroke-width="2"/>
      </g>
      <g>
        <path d="M92.663,158.75 L116.663,158.75 L116.663,182.75 L92.663,182.75 z" fill="#000000"/>
        <path d="M92.663,158.75 L116.663,158.75 L116.663,182.75 L92.663,182.75 z" fill-opacity="0" stroke="#FFFFFF" stroke-width="2"/>
      </g>
    </g>
    <text transform="matrix(1, 0, 0, 1, 80.663, 190.25)">
      <tspan x="-7.174" y="4" font-family="Helvetica" font-size="12" fill="#000000">56</tspan>
    </text>
    <g>
      <g>
        <path d="M60.5,36.5 L84.5,36.5 L84.5,60.5 L60.5,60.5 z" fill="#FFFFFF"/>
        <path d="M60.5,36.5 L84.5,36.5 L84.5,60.5 L60.5,60.5 z" fill-opacity="0" stroke="#D7D4D8" stroke-width="1"/>
      </g>
      <path d="M60.5,36.5 L84.5,36.5 L84.5,60.5 L60.5,60.5 z" fill-opacity="0" stroke="#D7D4D8" stroke-width="1"/>
    </g>
    <g>
      <g>
        <path d="M156.5,60.5 L180.5,60.5 L180.5,84.5 L156.5,84.5 z" fill="#FFFFFF"/>
        <path d="M156.5,60.5 L180.5,60.5 L180.5,84.5 L156.5,84.5 z" fill-opacity="0" stroke="#D7D4D8" stroke-width="1"/>
      </g>
      <path d="M156.5,60.5 L180.5,60.5 L180.5,84.5 L156.5,84.5 z" fill-opacity="0" stroke="#D7D4D8" stroke-width="1"/>
    </g>
    <g>
      <g>
        <path d="M228.5,60.5 L252.5,60.5 L252.5,84.5 L228.5,84.5 z" fill="#FFFFFF"/>
        <path d="M228.5,60.5 L252.5,60.5 L252.5,84.5 L228.5,84.5 z" fill-opacity="0" stroke="#D7D4D8" stroke-width="1"/>
      </g>
      <path d="M228.5,60.5 L252.5,60.5 L252.5,84.5 L228.5,84.5 z" fill-opacity="0" stroke="#D7D4D8" stroke-width="1"/>
    </g>
    <g>
      <g>
        <path d="M380.663,36.5 L404.663,36.5 L404.663,60.5 L380.663,60.5 z" fill="#FFFFFF"/>
        <path d="M380.663,36.5 L404.663,36.5 L404.663,60.5 L380.663,60.5 z" fill-opacity="0" stroke="#D7D4D8" stroke-width="1"/>
      </g>
      <path d="M380.663,36.5 L404.663,36.5 L404.663,60.5 L380.663,60.5 z" fill-opacity="0" stroke="#D7D4D8" stroke-width="1"/>
    </g>
    <g>
      <g>
        <path d="M380.663,60.5 L404.663,60.5 L404.663,84.5 L380.663,84.5 z" fill="#FFFFFF"/>
        <path d="M380.663,60.5 L404.663,60.5 L404.663,84.5 L380.663,84.5 z" fill-opacity="0" stroke="#D7D4D8" stroke-width="1"/>
      </g>
      <path d="M380.663,60.5 L404.663,60.5 L404.663,84.5 L380.663,84.5 z" fill-opacity="0" stroke="#D7D4D8" stroke-width="1"/>
    </g>
    <g>
      <path d="M260.663,134.75 L284.663,134.75 L284.663,158.75 L260.663,158.75 z" fill="#FFFFFF"/>
      <path d="M260.663,134.75 L284.663,134.75 L284.663,158.75 L260.663,158.75 z" fill-opacity="0" stroke="#D7D4D8" stroke-width="1"/>
    </g>
    <g>
      <g>
        <path d="M356.663,110.75 L380.663,110.75 L380.663,134.75 L356.663,134.75 z" fill="#FFFFFF"/>
        <path d="M356.663,110.75 L380.663,110.75 L380.663,134.75 L356.663,134.75 z" fill-opacity="0" stroke="#D7D4D8" stroke-width="1"/>
      </g>
      <path d="M356.663,110.75 L380.663,110.75 L380.663,134.75 L356.663,134.75 z" fill-opacity="0" stroke="#D7D4D8" stroke-width="1"/>
    </g>
    <g>
      <g>
        <path d="M332.663,134.75 L356.663,134.75 L356.663,158.75 L332.663,158.75 z" fill="#FFFFFF"/>
        <path d="M332.663,134.75 L356.663,134.75 L356.663,158.75 L332.663,158.75 z" fill-opacity="0" stroke="#D7D4D8" stroke-width="1"/>
      </g>
      <g>
        <path d="M332.663,134.75 L356.663,134.75 L356.663,158.75 L332.663,158.75 z" fill="#FFFFFF"/>
        <path d="M332.663,134.75 L356.663,134.75 L356.663,158.75 L332.663,158.75 z" fill-opacity="0" stroke="#D7D4D8" stroke-width="1"/>
      </g>
    </g>
    <g>
      <g>
        <path d="M380.663,134.75 L404.663,134.75 L404.663,158.75 L380.663,158.75 z" fill="#FFFFFF"/>
        <path d="M380.663,134.75 L404.663,134.75 L404.663,158.75 L380.663,158.75 z" fill-opacity="0" stroke="#D7D4D8" stroke-width="1"/>
      </g>
      <g>
        <path d="M380.663,134.75 L404.663,134.75 L404.663,158.75 L380.663,158.75 z" fill="#FFFFFF"/>
        <path d="M380.663,134.75 L404.663,134.75 L404.663,158.75 L380.663,158.75 z" fill-opacity="0" stroke="#D7D4D8" stroke-width="1"/>
      </g>
    </g>
    <g>
      <g>
        <path d="M356.663,158.75 L380.663,158.75 L380.663,182.75 L356.663,182.75 z" fill="#FFFFFF"/>
        <path d="M356.663,158.75 L380.663,158.75 L380.663,182.75 L356.663,182.75 z" fill-opacity="0" stroke="#D7D4D8" stroke-width="1"/>
      </g>
      <g>
        <path d="M356.663,158.75 L380.663,158.75 L380.663,182.75 L356.663,182.75 z" fill="#FFFFFF"/>
        <path d="M356.663,158.75 L380.663,158.75 L380.663,182.75 L356.663,182.75 z" fill-opacity="0" stroke="#D7D4D8" stroke-width="1"/>
      </g>
    </g>
    <g>
      <g>
        <path d="M68.663,110.75 L92.663,110.75 L92.663,134.75 L68.663,134.75 z" fill="#FFFFFF"/>
        <path d="M68.663,110.75 L92.663,110.75 L92.663,134.75 L68.663,134.75 z" fill-opacity="0" stroke="#D7D4D8" stroke-width="1"/>
      </g>
      <path d="M68.663,110.75 L92.663,110.75 L92.663,134.75 L68.663,134.75 z" fill-opacity="0" stroke="#D7D4D8" stroke-width="1"/>
    </g>
  </g>
  <defs/>
</svg>
