<?xml version="1.0" encoding="UTF-8"?>
<!DOCTYPE svg PUBLIC "-//W3C//DTD SVG 1.1//EN" "http://www.w3.org/Graphics/SVG/1.1/DTD/svg11.dtd">
<svg version="1.1" xmlns="http://www.w3.org/2000/svg" xmlns:xlink="http://www.w3.org/1999/xlink" x="0px" y="0px" width="765" height="990" viewBox="0, 0, 765, 990">
  <g id="Layer">
    <g>
      <path d="M21.859,23.676 L398.703,23.676 L398.703,403.767 L21.859,403.767 z" fill="#F3F3F3"/>
      <path d="M21.859,23.676 L398.703,23.676 L398.703,403.767 L21.859,403.767 z" fill-opacity="0" stroke="#000000" stroke-width="2"/>
    </g>
    <g>
      <path d="M362.234,213.721 C362.234,298.292 294.203,366.85 210.281,366.85 C126.36,366.85 58.328,298.292 58.328,213.721 C58.328,129.151 126.36,60.593 210.281,60.593 C294.203,60.593 362.234,129.151 362.234,213.721 z" fill="#FFFFFF"/>
      <path d="M362.234,213.721 C362.234,298.292 294.203,366.85 210.281,366.85 C126.36,366.85 58.328,298.292 58.328,213.721 C58.328,129.151 126.36,60.593 210.281,60.593 C294.203,60.593 362.234,129.151 362.234,213.721 z" fill-opacity="0" stroke="#000000" stroke-width="1"/>
    </g>
    <path d="M210.281,23.676 L210.281,403.767" fill-opacity="0" stroke="#000000" stroke-width="1" stroke-dasharray="1,1"/>
    <path d="M21.859,213.721 L398.703,213.721 L398.703,213.721 L398.703,213.721" fill-opacity="0" stroke="#000000" stroke-width="1" stroke-dasharray="1,1"/>
    <path d="M398.703,213.721 C398.703,234.901 382.229,252.071 361.907,252.071 C341.585,252.071 325.111,234.901 325.111,213.721 C325.111,192.541 341.585,175.371 361.907,175.371 C382.229,175.371 398.703,192.541 398.703,213.721 z" fill-opacity="0" stroke="#1F1A17" stroke-width="0.9" stroke-dasharray="0.9,0.9"/>
    <path d="M316.648,140.87 C316.648,162.051 300.174,179.221 279.853,179.221 C259.531,179.221 243.057,162.051 243.057,140.87 C243.057,119.69 259.531,102.52 279.853,102.52 C300.174,102.52 316.648,119.69 316.648,140.87 z" fill-opacity="0" stroke="#1F1A17" stroke-width="0.9"/>
    <path d="M210.281,213.721 L322.727,96.526" fill-opacity="0" stroke="#1F1A17" stroke-width="0.9"/>
    <path d="M237.633,96.526 L322.727,185.214" fill-opacity="0" stroke="#1F1A17" stroke-width="0.9"/>
    <g>
      <path d="M309.997,114.264 C309.997,116.198 308.493,117.766 306.637,117.766 C304.781,117.766 303.277,116.198 303.277,114.264 C303.277,112.33 304.781,110.762 306.637,110.762 C308.493,110.762 309.997,112.33 309.997,114.264 z" fill="#1F1A17"/>
      <path d="M309.997,114.264 C309.997,116.198 308.493,117.766 306.637,117.766 C304.781,117.766 303.277,116.198 303.277,114.264 C303.277,112.33 304.781,110.762 306.637,110.762 C308.493,110.762 309.997,112.33 309.997,114.264 z" fill-opacity="0" stroke="#1F1A17" stroke-width="0.9"/>
    </g>
    <g>
      <path d="M257.725,112.997 C257.725,114.931 256.221,116.499 254.365,116.499 C252.509,116.499 251.005,114.931 251.005,112.997 C251.005,111.063 252.509,109.495 254.365,109.495 C256.221,109.495 257.725,111.063 257.725,112.997 z" fill="#1F1A17"/>
      <path d="M257.725,112.997 C257.725,114.931 256.221,116.499 254.365,116.499 C252.509,116.499 251.005,114.931 251.005,112.997 C251.005,111.063 252.509,109.495 254.365,109.495 C256.221,109.495 257.725,111.063 257.725,112.997 z" fill-opacity="0" stroke="#1F1A17" stroke-width="0.9"/>
    </g>
    <g>
      <path d="M257.725,168.11 C257.725,170.045 256.221,171.613 254.365,171.613 C252.509,171.613 251.005,170.045 251.005,168.11 C251.005,166.176 252.509,164.608 254.365,164.608 C256.221,164.608 257.725,166.176 257.725,168.11 z" fill="#1F1A17"/>
      <path d="M257.725,168.11 C257.725,170.045 256.221,171.613 254.365,171.613 C252.509,171.613 251.005,170.045 251.005,168.11 C251.005,166.176 252.509,164.608 254.365,164.608 C256.221,164.608 257.725,166.176 257.725,168.11 z" fill-opacity="0" stroke="#1F1A17" stroke-width="0.9"/>
    </g>
    <g>
      <path d="M309.676,168.445 C309.676,170.379 308.172,171.947 306.316,171.947 C304.46,171.947 302.955,170.379 302.955,168.445 C302.955,166.511 304.46,164.943 306.316,164.943 C308.172,164.943 309.676,166.511 309.676,168.445 z" fill="#1F1A17"/>
      <path d="M309.676,168.445 C309.676,170.379 308.172,171.947 306.316,171.947 C304.46,171.947 302.955,170.379 302.955,168.445 C302.955,166.511 304.46,164.943 306.316,164.943 C308.172,164.943 309.676,166.511 309.676,168.445 z" fill-opacity="0" stroke="#1F1A17" stroke-width="0.9"/>
    </g>
    <text transform="matrix(1, 0, 0, 1, 292.151, 140.87)">
      <tspan x="-4.595" y="4.398" font-family=".LucidaGrandeUI" font-size="12" fill="#000000">x</tspan>
    </text>
    <text transform="matrix(1, 0, 0, 1, 292.152, 112.997)">
      <tspan x="-8.611" y="4.398" font-family=".LucidaGrandeUI" font-size="12" fill="#000000">x1</tspan>
    </text>
    <text transform="matrix(1, 0, 0, 1, 237.826, 112.997)">
      <tspan x="-5.525" y="4.398" font-family=".LucidaGrandeUI" font-size="12" fill="#000000">x2</tspan>
    </text>
    <text transform="matrix(1, 0, 0, 1, 237.826, 165.576)">
      <tspan x="-5.525" y="4.398" font-family=".LucidaGrandeUI" font-size="12" fill="#000000">x3</tspan>
    </text>
    <text transform="matrix(1, 0, 0, 1, 319.527, 165.576)">
      <tspan x="-8.701" y="4.398" font-family=".LucidaGrandeUI" font-size="12" fill="#000000">x4</tspan>
    </text>
    <text transform="matrix(1, 0, 0, 1, 346.471, 175.931)">
      <tspan x="-10.478" y="4.398" font-family=".LucidaGrandeUI" font-size="12" fill="#000000">r</tspan>
    </text>
    <path d="M305.943,113.631 C346.99,157.058 348.49,157.975 348.49,157.975 L348.49,157.975 L348.49,157.975" fill-opacity="0" stroke="#000000" stroke-width="0.974"/>
    <g>
      <path d="M324.615,183.218 C346.602,159.971 346.602,159.971 346.602,159.971" fill-opacity="0" stroke="#000000" stroke-width="0.739"/>
      <g>
        <path d="M325.424,182.363 L325.544,179.939 L322.727,185.214 L327.462,182.505 L325.424,182.363 z" fill="#000000"/>
        <path d="M325.424,182.363 L325.544,179.939 L322.727,185.214 L327.462,182.505 L325.424,182.363 z" fill-opacity="0" stroke="#000000" stroke-width="1"/>
      </g>
      <g>
        <path d="M345.793,160.826 L345.673,163.25 L348.49,157.975 L343.755,160.684 L345.793,160.826 z" fill="#000000"/>
        <path d="M345.793,160.826 L345.673,163.25 L348.49,157.975 L343.755,160.684 L345.793,160.826 z" fill-opacity="0" stroke="#000000" stroke-width="1"/>
      </g>
    </g>
    <g>
      <path d="M283.54,141.205 C283.54,143.14 282.036,144.708 280.18,144.708 C278.324,144.708 276.819,143.14 276.819,141.205 C276.819,139.271 278.324,137.703 280.18,137.703 C282.036,137.703 283.54,139.271 283.54,141.205 z" fill="#1F1A17"/>
      <path d="M283.54,141.205 C283.54,143.14 282.036,144.708 280.18,144.708 C278.324,144.708 276.819,143.14 276.819,141.205 C276.819,139.271 278.324,137.703 280.18,137.703 C282.036,137.703 283.54,139.271 283.54,141.205 z" fill-opacity="0" stroke="#1F1A17" stroke-width="0.9"/>
    </g>
    <g>
      <path d="M213.642,213.386 C213.642,215.321 212.137,216.889 210.281,216.889 C208.425,216.889 206.921,215.321 206.921,213.386 C206.921,211.452 208.425,209.884 210.281,209.884 C212.137,209.884 213.642,211.452 213.642,213.386 z" fill="#1F1A17"/>
      <path d="M213.642,213.386 C213.642,215.321 212.137,216.889 210.281,216.889 C208.425,216.889 206.921,215.321 206.921,213.386 C206.921,211.452 208.425,209.884 210.281,209.884 C212.137,209.884 213.642,211.452 213.642,213.386 z" fill-opacity="0" stroke="#1F1A17" stroke-width="0.9"/>
    </g>
  </g>
  <defs/>
</svg>
