<?xml version="1.0" encoding="UTF-8"?>
<!DOCTYPE svg PUBLIC "-//W3C//DTD SVG 1.1//EN" "http://www.w3.org/Graphics/SVG/1.1/DTD/svg11.dtd">
<svg version="1.1" xmlns="http://www.w3.org/2000/svg" xmlns:xlink="http://www.w3.org/1999/xlink" x="0px" y="0px" width="595.276" height="841.89" viewBox="0, 0, 595.276, 841.89">
  <g id="Layer 1">
    <path d="M95.669,60.236 L244.234,60.236 L244.234,63.78 L95.669,63.78 z" fill="#BA2122"/>
    <path d="M14.555,24.803 L244.234,24.803 L244.234,28.346 L14.555,28.346 z" fill="#BA2122"/>
    <path d="M14.555,42.564 L244.234,42.564 L244.234,46.117 L14.555,46.117 z" fill="#BA2122"/>
    <g>
      <path d="M96.169,93.261 L244.734,93.261" fill="#0433FF"/>
      <path d="M96.169,93.261 L244.734,93.261" fill-opacity="0" stroke="#0433FF" stroke-width="2"/>
    </g>
    <g>
      <path d="M15.055,43.064 L96.169,43.064" fill="#0433FF"/>
      <path d="M15.055,43.064 L96.169,43.064" fill-opacity="0" stroke="#0433FF" stroke-width="2"/>
    </g>
    <g>
      <path d="M244.734,18.483 L312.287,18.483" fill="#0433FF"/>
      <path d="M244.734,18.483 L312.287,18.483" fill-opacity="0" stroke="#0433FF" stroke-width="2"/>
    </g>
    <g>
      <path d="M96.169,46.617 L96.169,93.261" fill="#000000"/>
      <path d="M96.169,46.617 L96.169,93.261" fill-opacity="0" stroke="#000000" stroke-width="1" stroke-dasharray="2,2"/>
    </g>
    <g>
      <path d="M244.734,18.483 L244.734,93.261" fill="#000000"/>
      <path d="M244.734,18.483 L244.734,93.261" fill-opacity="0" stroke="#000000" stroke-width="1" stroke-dasharray="2,2"/>
    </g>
    <text transform="matrix(1, 0, 0, 1, 280.054, 31.303)">
      <tspan x="-7.219" y="3.5" font-family="Helvetica" font-size="10" fill="#000000">I(x)</tspan>
    </text>
    <g>
      <path d="M11.13,99.713 L316.798,99.76" fill-opacity="0" stroke="#000000" stroke-width="1"/>
      <path d="M316.797,102.76 L324.798,99.761 L316.798,96.76 z" fill="#000000" fill-opacity="1" stroke="#000000" stroke-width="1" stroke-opacity="1"/>
    </g>
    <text transform="matrix(1, 0, 0, 1, 328.997, 99.261)">
      <tspan x="-2.5" y="3.5" font-family="Helvetica" font-size="10" fill="#000000">x</tspan>
    </text>
    <path d="M95.669,77.953 L244.234,77.953 L244.234,81.496 L95.669,81.496 z" fill="#BA2122"/>
    <g>
      <path d="M15.055,103.256 L15.055,9.5" fill-opacity="0" stroke="#000000" stroke-width="1"/>
      <path d="M18.055,9.5 L15.055,1.5 L12.055,9.5 z" fill="#000000" fill-opacity="1" stroke="#000000" stroke-width="1" stroke-opacity="1"/>
    </g>
    <text transform="matrix(1, 0, 0, 1, 6.809, 79.724)">
      <tspan x="-2.781" y="3.5" font-family="Helvetica" font-size="10" fill="#000000">1</tspan>
    </text>
    <text transform="matrix(1, 0, 0, 1, 6.809, 62.008)">
      <tspan x="-2.781" y="3.5" font-family="Helvetica" font-size="10" fill="#000000">2</tspan>
    </text>
    <text transform="matrix(1, 0, 0, 1, 6.809, 44.34)">
      <tspan x="-2.781" y="3.5" font-family="Helvetica" font-size="10" fill="#000000">3</tspan>
    </text>
    <text transform="matrix(1, 0, 0, 1, 6.809, 26.575)">
      <tspan x="-2.781" y="3.5" font-family="Helvetica" font-size="10" fill="#000000">4</tspan>
    </text>
  </g>
  <defs/>
</svg>
